# xmcd
#
# Track frame offsets: 
#        150
#        12602
#        28206
#        42760
#        56564
#        69618
#        84997
#        97674
#        111327
#        126328
#
# Disc length: 1857 seconds
#
# Revision: 0
# Processed by: cddbd v1.5.2PL0 Copyright (c) Steve Scherf et al.
# Submitted via: ExactAudioCopyFreeDBPlugin 1.0
#
DISCID=82073f0a
DTITLE=Billie Jo Spears - Billie Jo
DYEAR=1975
DGENRE=Country
TTITLE0=Stay Away From The Apple Tree
TTITLE1=Lizzie And The Rain Man
TTITLE2=Hurt
TTITLE3=We Still Love In My Mind
TTITLE4=Enough For You
TTITLE5=Silver Wings And Golden Rings
TTITLE6=We Love Each Other
TTITLE7=But I Do
TTITLE8=Another Somebody Did Somebody Wrong Song
TTITLE9=Everytime Two Fools Collide
EXTD=
EXTT0=
EXTT1=
EXTT2=
EXTT3=
EXTT4=
EXTT5=
EXTT6=
EXTT7=
EXTT8=
EXTT9=
PLAYORDER=
